<?xml version="1.0" encoding="UTF-8"?>
<svg width="36px" height="36px" viewBox="0 0 36 36" version="1.1" xmlns="http://www.w3.org/2000/svg" xmlns:xlink="http://www.w3.org/1999/xlink">
    <title>data_ic_request@2x</title>
    <g id="页面-1" stroke="none" stroke-width="1" fill="none" fill-rule="evenodd">
        <g id="数据统计" transform="translate(-410.000000, -454.000000)">
            <g id="数据" transform="translate(360.000000, 296.000000)">
                <g id="全局" transform="translate(30.000000, 16.000000)">
                    <g id="编组-5" transform="translate(0.000000, 115.000000)">
                        <g id="编组-3" transform="translate(20.000000, 19.000000)">
                            <g id="data_ic_request" transform="translate(0.000000, 8.000000)">
                                <rect id="矩形" x="0" y="0" width="36" height="36"></rect>
                                <g id="编组" transform="translate(0.000000, 5.000000)" fill="#1CBC9C" fill-rule="nonzero">
                                    <g id="编组-10">
                                        <path d="M24,22.5 L19.3529372,21.0909161 C18.0353024,20.681813 17,19.5 17,18 C17,16.5 17.5,15.5 19.1058783,14.9545611 L28,11.1090993 L28,8 L0,8 L0,24.3636259 C0,25.2636374 0.741176811,26 1.64703385,26 L24,26 L24,22.5 Z" id="路径"></path>
                                        <path d="M26.3529276,0 C27.2588232,0 28,0.7 28,1.55556771 L28,1.55556771 L28,6 L0,6 L0,1.55556771 C0,0.7 0.741176811,0 1.64703385,0 L1.64703385,0 Z M9,2 L3,2 L3,4 L9,4 L9,2 Z" id="形状结合"></path>
                                        <path d="M33.9505936,10.6961717 L19.5084966,17.3760778 C18.8701979,17.7019148 18.8701979,18.6794638 19.588312,18.9238511 L22.939511,20.0643378 L29.3227224,15.7468166 L25.4927806,20.634562 L30.1206518,22.5082105 C30.9185439,22.8340475 31.8760294,22.3452729 32.1154007,21.4492117 L34.987857,11.6737208 C35.2272284,11.0220087 34.5888923,10.3702966 33.9505936,10.6961717 Z M25.9571497,25.0653355 C25.9571497,25.9346645 27,26 27.5,25.5 L29,24.0006329 L26,22.8705134 L25.9571497,25.0653355 Z" id="形状"></path>
                                    </g>
                                </g>
                            </g>
                        </g>
                    </g>
                </g>
            </g>
        </g>
    </g>
</svg>