<?xml version="1.0" encoding="UTF-8"?>
<svg width="36px" height="36px" viewBox="0 0 36 36" version="1.1" xmlns="http://www.w3.org/2000/svg" xmlns:xlink="http://www.w3.org/1999/xlink">
    <title>data_ic_bandwidth@2x</title>
    <g id="页面-1" stroke="none" stroke-width="1" fill="none" fill-rule="evenodd">
        <g id="数据统计" transform="translate(-990.000000, -454.000000)">
            <g id="数据" transform="translate(360.000000, 296.000000)">
                <g id="全局" transform="translate(30.000000, 16.000000)">
                    <g id="编组-5备份" transform="translate(580.000000, 115.000000)">
                        <g id="编组-3" transform="translate(20.000000, 19.000000)">
                            <g id="data_ic_request" transform="translate(0.000000, 8.000000)">
                                <rect id="矩形" x="0" y="0" width="36" height="36"></rect>
                                <g id="编组-30" transform="translate(2.000000, 3.000000)" fill="#1CBC9C">
                                    <path d="M21,3 L21,9 L0,9 L0,3 L21,3 Z M6,5 L2,5 L2,7 L6,7 L6,5 Z M12,5 L8,5 L8,7 L12,7 L12,5 Z" id="形状结合"></path>
                                    <rect id="矩形" x="26" y="0" width="2" height="6"></rect>
                                    <rect id="矩形" x="26" y="24" width="2" height="6"></rect>
                                    <rect id="矩形" x="26" y="12" width="2" height="5"></rect>
                                    <rect id="矩形" x="23" y="3" width="8" height="10"></rect>
                                    <rect id="矩形" x="23" y="17" width="8" height="10"></rect>
                                    <path d="M21,12 L21,18 L0,18 L0,12 L21,12 Z M6,14 L2,14 L2,16 L6,16 L6,14 Z M12,14 L8,14 L8,16 L12,16 L12,14 Z" id="形状结合"></path>
                                    <path d="M21,21 L21,27 L0,27 L0,21 L21,21 Z M6,23 L2,23 L2,25 L6,25 L6,23 Z M12,23 L8,23 L8,25 L12,25 L12,23 Z" id="形状结合"></path>
                                </g>
                            </g>
                        </g>
                    </g>
                </g>
            </g>
        </g>
    </g>
</svg>