<?xml version="1.0" encoding="UTF-8"?>
<svg width="26px" height="26px" viewBox="0 0 26 26" version="1.1" xmlns="http://www.w3.org/2000/svg" xmlns:xlink="http://www.w3.org/1999/xlink">
    <title>data_ic_Tencent@2x</title>
    <g id="页面-1" stroke="none" stroke-width="1" fill="none" fill-rule="evenodd">
        <g id="数据统计" transform="translate(-990.000000, -615.000000)" fill-rule="nonzero">
            <g id="数据" transform="translate(360.000000, 296.000000)">
                <g id="全局" transform="translate(30.000000, 16.000000)">
                    <g id="编组-5备份" transform="translate(580.000000, 115.000000)">
                        <g id="编组-4" transform="translate(0.000000, 164.000000)">
                            <g id="data_ic_Tencent" transform="translate(20.000000, 24.000000)">
                                <path d="M21.6429493,17.8493431 C20.9504139,18.4869569 20.0116005,18.829099 19.0449242,18.7961701 L10.4402647,18.7961701 C13.0382899,16.4266497 15.2518074,14.4348789 15.4544533,14.2435511 C15.8275688,13.8866347 16.2195018,13.5477018 16.6287607,13.2280423 C17.284118,12.5853016 18.1936777,12.2297079 19.1384531,12.2468745 C20.0738641,12.2667334 20.9674404,12.6168032 21.6429493,13.2280423 C22.3147533,13.8342922 22.6947678,14.6735448 22.6947678,15.5509573 C22.6947678,16.4283699 22.3147533,17.2676224 21.6429493,17.8738723 M23.3472539,11.7072321 C22.2889607,10.6224036 20.7992847,10.0036261 19.237178,10 C17.8906681,10.0183042 16.5875733,10.4525327 15.5271981,11.2362715 C14.9987504,11.6504985 14.4956549,12.0927366 14.0203434,12.5608482 C13.6202476,12.9435037 5,20.9007752 5,20.9007752 C5.53102343,20.9783527 6.06848988,21.009555 6.60557957,20.9939862 L17.5172854,20.9939862 C18.1874147,21.0143009 18.858184,20.9831279 19.5229608,20.9007752 C20.9055197,20.8019638 22.2124875,20.2662062 23.2329408,19.379965 C24.3414446,18.3799411 24.9779418,17.001371 24.9994374,15.5539631 C25.0209331,14.1065552 24.4256248,12.7116778 23.3472539,11.6827029 L23.3472539,11.7072321 Z" id="形状" fill="#00A3FF"></path>
                                <path d="M8.72505699,11.147482 C7.77846045,10.4058377 6.61540843,10.0023031 5.41782801,10 C3.94702369,10.0036558 2.54441652,10.6275043 1.5479787,11.721223 C-0.55167753,13.9203381 -0.510230836,17.4180154 1.64093338,19.5656475 C2.45680952,20.379313 3.52396756,20.8855788 4.66440603,21 L6.85128673,18.8929856 L5.60862968,18.8929856 C4.70554576,18.8861089 3.83589385,18.5467391 3.16245439,17.9383993 C1.87186106,16.6255494 1.83091356,14.5186651 3.06949973,13.1555755 C3.68648432,12.5143279 4.5433679,12.1674534 5.42761272,12.2009892 C6.28277707,12.1780079 7.10694601,12.5253304 7.69277102,13.1555755 C8.06948202,13.5413669 9.1115527,14.3030575 9.48826367,14.6888489 L9.58121835,14.6888489 L11,13.2544964 L11,13.1555755 C10.3395327,12.4878597 9.297462,11.6272482 8.73484169,11.147482" id="路径" fill="#00C8DC"></path>
                                <path d="M20,8.4923034 C18.7998426,4.92665414 15.4874459,2.68143816 11.9514944,3.03684763 C8.41554292,3.3922571 5.55462587,6.25797203 5,10 C5.30250347,10 5.60500696,9.88873087 6.00660639,9.88873087 C6.40820582,9.88873087 6.91411682,10 7.31571627,10 C7.82719972,7.29425513 10.0636902,5.35400805 12.6512517,5.3712045 C14.81293,5.38128936 16.7743282,6.72334768 17.6842837,8.81498384 C17.6842837,8.81498384 17.7833797,8.9206895 17.7833797,8.81498384 C18.5148135,8.65564856 19.2552884,8.54785528 20,8.4923034" id="路径" fill="#006EFF"></path>
                            </g>
                        </g>
                    </g>
                </g>
            </g>
        </g>
    </g>
</svg>