<?xml version="1.0" encoding="UTF-8"?>
<svg width="26px" height="26px" viewBox="0 0 26 26" version="1.1" xmlns="http://www.w3.org/2000/svg" xmlns:xlink="http://www.w3.org/1999/xlink">
    <title>data_ic_ali@2x</title>
    <g id="页面-1" stroke="none" stroke-width="1" fill="none" fill-rule="evenodd">
        <g id="数据统计" transform="translate(-990.000000, -541.000000)" fill="#FF6A00" fill-rule="nonzero">
            <g id="数据" transform="translate(360.000000, 296.000000)">
                <g id="全局" transform="translate(30.000000, 16.000000)">
                    <g id="编组-5备份" transform="translate(580.000000, 115.000000)">
                        <g id="编组-4备份" transform="translate(0.000000, 90.000000)">
                            <g id="data_ic_ali" transform="translate(20.000000, 24.000000)">
                                <path d="M21.1322314,6 C23.2892562,6 25,7.6969697 25,9.74747475 L25,9.74747475 L25,16.3232323 C25,18.3737374 23.2892562,20 21.1322314,20 L21.1322314,20 L16,20 L17.2644628,18.3030303 L20.9834711,17.1717172 C21.6528926,16.959596 22,16.1363636 22,15.5 L22,15.5 L22,10.5 C22,9.86363636 21.6528926,9.04040404 20.9834711,8.82828283 L20.9834711,8.82828283 L17.2644628,7.6969697 L16,6 Z M10,6 L8.73553719,7.70558376 L5.01652893,8.84263959 C4.34710744,9.05583756 4,9.86040609 4,10.5 L4,10.5 L4,15.5 C4,16.1395939 4.34710744,17.0152284 5.01652893,17.2284264 L5.01652893,17.2284264 L8.73553719,18.2944162 L10,20 L4.8677686,20 C2.7107438,20 1,18.3654822 1,16.3045685 L1,16.3045685 L1,9.76649746 C1,7.70558376 2.7107438,6 4.8677686,6 L4.8677686,6 L10,6 Z M17,12 L17,15 L9,15 L9,12 L17,12 Z" id="形状结合"></path>
                            </g>
                        </g>
                    </g>
                </g>
            </g>
        </g>
    </g>
</svg>