<?xml version="1.0" encoding="utf-8"?>
<!-- Svg Vector Icons : http://www.onlinewebfonts.com/icon -->
<!DOCTYPE svg PUBLIC "-//W3C//DTD SVG 1.1//EN" "http://www.w3.org/Graphics/SVG/1.1/DTD/svg11.dtd">
<svg version="1.1" xmlns="http://www.w3.org/2000/svg" xmlns:xlink="http://www.w3.org/1999/xlink" x="0px" y="0px" viewBox="0 0 256 256" enable-background="new 0 0 256 256" xml:space="preserve">
<metadata> Svg Vector Icons : http://www.onlinewebfonts.com/icon </metadata>
<g><g><path fill="#ffffff" d="M108.1,29.7c-32.7,26.2-65.4,52.4-98,78.6c78.6,0,157.3,0,235.9,0c-0.1-9.9,0.3-19.8-0.2-29.7c-1.6-9.3-11.6-10.1-19.1-9.6c-39.5,0-79,0-118.5,0C108.1,55.9,108.1,42.8,108.1,29.7z M10,147.7c0.1,9.9-0.3,19.8,0.2,29.7c1.6,9.3,11.6,10.1,19.1,9.6c39.5,0,79,0,118.5,0c0,13.1,0,26.2,0,39.3c32.7-26.2,65.4-52.4,98-78.6C167.3,147.7,88.7,147.7,10,147.7z"/></g></g>
</svg>