<?xml version="1.0" encoding="UTF-8"?>
<svg width="26px" height="26px" viewBox="0 0 26 26" version="1.1" xmlns="http://www.w3.org/2000/svg" xmlns:xlink="http://www.w3.org/1999/xlink">
    <title>data_ic_huawei@2x</title>
    <g id="页面-1" stroke="none" stroke-width="1" fill="none" fill-rule="evenodd">
        <g id="数据统计" transform="translate(-990.000000, -689.000000)" fill="#FE0000" fill-rule="nonzero">
            <g id="数据" transform="translate(360.000000, 296.000000)">
                <g id="全局" transform="translate(30.000000, 16.000000)">
                    <g id="编组-5备份" transform="translate(580.000000, 115.000000)">
                        <g id="编组-4备份-2" transform="translate(0.000000, 238.000000)">
                            <g id="data_ic_huawei" transform="translate(20.000000, 24.000000)">
                                <path d="M10.7943717,19.7646531 C9.11961524,21.2530366 7.72398482,21.9986142 6.60610548,22 C5.48822613,22 4.63572282,21.3015407 4.04859555,19.9018505 L10.7943717,19.7632673 L10.7943717,19.7646531 L10.7943717,19.7646531 Z M15.2053889,19.7646531 L21.9525401,19.9018505 C21.3640378,21.3015407 20.5115345,22 19.3936551,22 C18.2757758,22 16.8801454,21.2544224 15.2053889,19.7646531 Z M2.14971317,13.9247575 C4.73884823,15.321676 6.40122969,16.2432543 7.13548254,16.6894921 C7.86973538,17.13573 9.11961524,17.9367409 10.8864971,19.0925247 C8.07736119,19.2685253 6.23897904,19.271297 5.37135069,19.0994538 C4.44857304,18.9327075 3.60028749,18.4802785 2.94446625,17.8050868 C2.06446283,16.9139969 1.7990868,15.6210157 2.14971317,13.9247575 L2.14971317,13.9247575 Z M23.8500474,13.9247575 C24.2006738,15.6210157 23.9366728,16.9139969 23.0552944,17.8050868 C22.3995284,18.4803532 21.5512177,18.9327956 20.6284099,19.0994538 C19.7621566,19.2726828 17.9223994,19.2699111 15.1146385,19.0925247 C16.3525889,18.2732111 17.602608,17.472573 18.8642781,16.690878 C19.5999059,16.2446401 21.2622874,15.321676 23.8500474,13.9247575 L23.8500474,13.9247575 Z M5.3259755,8.16801175 C6.68035576,9.98345154 7.60710936,11.2764327 8.10623631,12.0497269 C8.60536325,12.8230211 9.73286762,14.9073123 11.4887494,18.3026005 C8.02648599,16.7282954 5.61885164,15.165077 4.2685964,13.6115595 C3.29784263,12.4973506 3.29784263,10.6680525 4.39922191,9.10483412 C4.55872254,8.87894351 4.86809874,8.5657455 5.3259755,8.16801175 Z M20.6710351,8.16801175 C21.1302869,8.5657455 21.4396631,8.87894351 21.5991637,9.10483412 C22.701918,10.6666667 22.701918,12.494579 21.7311642,13.6115595 C20.379534,15.165077 17.9732746,16.7296813 14.5082612,18.3039863 C16.264143,14.9086981 17.3916474,12.8230211 17.8907743,12.0497269 C18.3899012,11.2750469 19.3180299,9.98067987 20.6724101,8.16801175 L20.6710351,8.16801175 Z M11.4186242,5 C12.0951268,7.02331458 12.4773783,8.45072145 12.5653786,9.28222059 C12.653379,10.1151056 12.5791287,12.9117143 12.3453778,17.672047 C9.40286633,13.3898264 7.93161062,10.2800196 7.93161062,8.34539822 C7.93161062,6.41354854 9.09349013,5.29656802 11.4172492,5 L11.4186242,5 Z M14.5866365,5 C16.9103955,5.29795387 18.072275,6.41354854 18.072275,8.34678405 C18.072275,10.2800196 16.6010193,13.3884405 13.6585079,17.672047 C13.424757,12.9117143 13.3505067,10.1164914 13.438507,9.28360642 C13.5278824,8.45072144 13.9101338,7.02331458 14.5866365,5.00138583 L14.5866365,5 Z" id="形状"></path>
                            </g>
                        </g>
                    </g>
                </g>
            </g>
        </g>
    </g>
</svg>