<?xml version="1.0" encoding="UTF-8"?>
<svg width="30px" height="30px" viewBox="0 0 30 30" version="1.1" xmlns="http://www.w3.org/2000/svg" xmlns:xlink="http://www.w3.org/1999/xlink">
    <title>bot_ic_1_nor@2x</title>
    <g id="页面-1" stroke="none" stroke-width="1" fill="none" fill-rule="evenodd">
        <g id="Home" transform="translate(-855.000000, -3414.000000)">
            <g id="底部" transform="translate(0.000000, 3220.000000)">
                <g id="分享" transform="translate(855.000000, 158.000000)">
                    <g id="bot_ic_1_nor" transform="translate(0.000000, 36.000000)">
                        <circle id="椭圆形" fill="#E2E3E9" cx="15" cy="15" r="15"></circle>
                        <g id="编组" transform="translate(4.038462, 6.923077)" fill="#FFFFFF" fill-rule="nonzero">
                            <path d="M8.6944111,2.31675795 C7.2156826,2.19123803 3.78409359,3.32328562 0.577834634,8.59512227 C0.577834634,8.59512227 -1.77404785,12.8604313 3.0118687,15.4181957 C3.0118687,15.4181957 7.00678285,17.8149157 12.6494231,16.1310541 C12.6494231,16.1310541 18.3742148,14.2198357 17.8507919,10.2126714 C17.8507919,10.2126714 17.4165621,8.55249286 15.393286,8.06699128 C15.393286,8.06699128 14.7689339,7.98410077 15.1210121,7.35413287 C15.1210121,7.35413287 16.017638,5.50922687 14.2666357,4.74900245 C14.2666357,4.74900245 12.7057556,4.37244268 10.8115748,5.33634094 C10.8115748,5.33634094 9.56521789,6.04919936 10.1637509,4.49796261 C10.1496677,4.4790162 10.4407191,2.46596088 8.6944111,2.31675795 Z M14.395731,10.9681592 C14.395731,13.1493639 11.6049244,15.5460839 8.18976566,15.5460839 C4.176074,15.5460839 1.98380031,13.7793318 1.98380031,11.5791807 C1.98380031,9.3979761 5.14780988,7.29492536 8.57939889,7.29492536 C12.0015991,7.29492536 14.395731,8.7869546 14.395731,10.9681592 Z" id="形状"></path>
                            <path d="M11.2096431,11.6060782 C11.1079045,13.1523961 9.7616423,14.3563642 7.97766746,14.4184008 C5.81749632,14.4988185 4.39315567,13.5406988 4.64395319,11.6451382 C4.83560036,10.0988203 6.21735276,8.79145792 7.97766746,8.79145792 C9.7616423,8.79375557 11.3350419,9.72889879 11.2096431,11.6060782 L11.2096431,11.6060782 Z M9.09206023,11.1925013 C9.09206023,10.965034 8.90041307,10.7858174 8.67327568,10.7858174 C8.4461383,10.7858174 8.25449114,10.971927 8.25449114,11.1925013 C8.25449114,11.4130756 8.4461383,11.5991852 8.67327568,11.5991852 C8.90041307,11.6221617 9.09206023,11.4429451 9.09206023,11.1925013 Z M7.96110536,12.1758952 C7.96110536,11.6244594 7.43348415,11.1764178 6.84671258,11.2568355 C6.25994101,11.3372532 5.69209756,11.7692113 5.69209756,12.3137541 C5.69209756,12.8651899 6.17713051,13.2718738 6.78046418,13.2718738 C7.39089589,13.297148 7.96110536,12.727331 7.96110536,12.1758952 L7.96110536,12.1758952 Z M14.5670175,1.84796211 C14.6687561,1.80660442 14.7586647,1.79052088 14.8604033,1.76754439 C14.9621419,1.74916319 15.0709786,1.7261867 15.1963773,1.71010316 C14.8367432,1.75146084 15.137227,1.72848435 15.1963773,1.71010316 C15.2791878,1.71010316 15.3643644,1.69172196 15.470835,1.69172196 L15.9984562,1.69172196 C16.1001948,1.69172196 16.1901034,1.71010316 16.291842,1.71010316 C16.0173843,1.66874547 16.2090315,1.69172196 16.2729139,1.71010316 C16.3391623,1.72848435 16.3983126,1.72848435 16.4834892,1.75146084 C16.6940644,1.79281853 16.9022737,1.85025976 17.112849,1.93757043 C17.1719993,1.95595162 17.2145876,1.97892811 17.280836,1.99501166 C17.0702607,1.91459393 17.2619079,1.99501166 17.2997641,1.99501166 C17.4251629,2.05245288 17.5505617,2.11678706 17.6948885,2.19950243 C17.7966271,2.25694366 17.929124,2.33965903 18.0308626,2.40399321 C18.0900129,2.44535089 18.1326012,2.48441093 18.1988496,2.52576862 C18.0308626,2.40399321 18.2177777,2.54414981 18.2414379,2.5671263 C18.4756733,2.75323588 18.6791505,2.95083371 18.8944578,3.17830098 C18.9133859,3.19668218 19.0624448,3.38279176 18.9133859,3.19668218 C18.9559742,3.23803986 18.9725363,3.29548109 19.0151246,3.33683878 C19.0742749,3.43563769 19.1405233,3.54132955 19.2067717,3.62174727 C19.2659221,3.72054619 19.3085103,3.82623805 19.3510986,3.92963226 C19.4339091,4.11574185 19.2919482,3.74352268 19.3510986,3.92963226 C19.3700267,3.98707349 19.3936869,4.05140767 19.4339091,4.13412304 C19.4930595,4.32023262 19.5356477,4.51783045 19.578236,4.72691653 C19.578236,4.76827421 19.5971641,4.82571544 19.5971641,4.86707313 C19.5545758,4.60054582 19.578236,4.76827421 19.5971641,4.82571544 C19.6160922,4.92451436 19.6160922,5.03020622 19.6160922,5.15198163 C19.6160922,5.31511472 19.6160922,5.5012243 19.5971641,5.66435739 C19.5971641,5.74477511 19.578236,5.82749048 19.578236,5.90790821 C19.6208242,5.58164202 19.578236,5.90790821 19.5593079,5.96534944 C19.5167196,6.1928167 19.4575692,6.39041453 19.3913208,6.59950061 C19.3487326,6.72127601 19.1996737,7.02456571 19.3723927,6.65694184 C19.1807456,7.06362574 19.246994,7.55302502 19.6894387,7.79657583 C20.0656349,8.00106661 20.6760667,7.91835124 20.8629818,7.48869084 C21.390603,6.36743804 21.4923416,5.02331327 21.1374395,3.82164275 C20.5080796,1.65955488 18.3242484,0.193654699 16.0789007,0.0144380636 C15.4495409,-0.0269196216 14.7562987,0.0144380636 14.1695271,0.21892884 C13.7318144,0.35908544 13.4336966,0.788745837 13.5590954,1.23678743 C13.6229778,1.68482902 14.1245728,2.00879755 14.5670175,1.84796211 L14.5670175,1.84796211 Z" id="形状"></path>
                            <path d="M15.0794918,4.01279834 C15.1339054,3.99552059 15.1730831,3.99552059 15.2340262,3.97392341 C15.410326,3.93504849 15.140435,3.97392341 15.2884397,3.97392341 C15.3646186,3.97392341 15.4647395,3.95664567 15.5409184,3.95664567 C15.8499871,3.95664567 16.196057,4.0322358 16.4485357,4.26332561 C16.4877134,4.30220053 16.5247146,4.33891574 16.5813046,4.37779066 C16.5813046,4.37779066 16.6966613,4.50953345 16.6357181,4.45338078 C16.6748959,4.4922557 16.6901316,4.54624865 16.711897,4.58512357 C16.7336624,4.6239985 16.7510748,4.63911652 16.7510748,4.67799144 C16.7336624,4.63911652 16.7336624,4.63911652 16.7510748,4.69526919 C16.7902525,4.78813705 16.8054883,4.88748408 16.8272537,4.98467138 C16.8664314,5.13801135 16.8272537,4.89180351 16.8272537,5.0235463 L16.8272537,5.42741355 C16.8272537,5.46628847 16.8272537,5.50300367 16.8098413,5.52028141 C16.8272537,5.34534427 16.8098413,5.50300367 16.8098413,5.52028141 C16.792429,5.57427436 16.792429,5.63474646 16.7706636,5.69521856 C16.6944847,5.96302358 16.8642549,6.26970352 17.1341458,6.3280159 C17.4258022,6.40360603 17.6956932,6.23514803 17.7718721,5.96734302 C18.0417631,5.10345586 17.8262856,4.08838846 17.1341458,3.49878548 C16.518185,2.94157827 15.547448,2.74936338 14.7399516,2.98045319 C14.1544622,3.19210554 14.4461186,4.18773548 15.0794918,4.01279834 L15.0794918,4.01279834 Z" id="路径"></path>
                        </g>
                    </g>
                </g>
            </g>
        </g>
    </g>
</svg>