<?xml version="1.0" encoding="UTF-8"?>
<svg width="30px" height="30px" viewBox="0 0 30 30" version="1.1" xmlns="http://www.w3.org/2000/svg" xmlns:xlink="http://www.w3.org/1999/xlink">
    <title>bot_ic_2_nor@2x</title>
    <g id="页面-1" stroke="none" stroke-width="1" fill="none" fill-rule="evenodd">
        <g id="Home" transform="translate(-1246.000000, -3414.000000)">
            <g id="底部" transform="translate(0.000000, 3220.000000)">
                <g id="分享" transform="translate(855.000000, 158.000000)">
                    <g id="编组-11备份-2" transform="translate(331.000000, 36.000000)">
                        <g id="bot_ic_2_sel" transform="translate(60.000000, 0.000000)">
                            <circle id="椭圆形" fill="#E2E3E9" cx="15" cy="15" r="15"></circle>
                            <g id="编组" transform="translate(5.192308, 7.500000)" fill="#FFFFFF" fill-rule="nonzero">
                                <path d="M13.1823207,4.61912009 C13.4063761,4.61912009 13.6273409,4.6350629 13.8461538,4.6581978 C13.2499929,1.98592749 10.2810238,0 6.89242297,0 C3.10369536,0 0,2.48563244 0,5.64164262 C0,7.46308744 1.03280235,8.95908497 2.75803143,10.1193927 L2.06878684,12.1153846 L4.47797218,10.9522268 C5.34058674,11.1162196 6.03191459,11.2853338 6.89242297,11.2853338 C7.10860314,11.2853338 7.32265426,11.2750912 7.5356752,11.2586585 C7.40088022,10.8155105 7.32265428,10.3507862 7.32265428,9.86905033 C7.32267716,6.97110895 9.90839172,4.61912009 13.1823207,4.61912009 Z M8.75864255,3.46153846 C9.38987098,3.46153846 9.80769231,3.80489452 9.80769231,4.32585416 C9.80769231,4.84465271 9.38987098,5.19230769 8.75864255,5.19230769 C8.12994772,5.19230769 7.5,4.84465271 7.5,4.32585416 C7.5,3.80489452 8.12997555,3.46153846 8.75864255,3.46153846 Z M4.72333552,5.19230769 C4.09499699,5.19230769 3.46153846,4.84465271 3.46153846,4.32585416 C3.46153846,3.80489452 4.09499699,3.46153846 4.72333552,3.46153846 C5.35097842,3.46153846 5.76923077,3.80489452 5.76923077,4.32585416 C5.76923077,4.84467596 5.35097842,5.19230769 4.72333552,5.19230769 Z M19.6153846,10.0499054 C19.6153846,7.37366333 16.8996846,5.19230769 13.8498063,5.19230769 C10.6203033,5.19230769 8.07692308,7.37366335 8.07692308,10.0499054 C8.07692308,12.7300344 10.6203033,14.9067167 13.8498063,14.9067167 C14.5254678,14.9067167 15.207397,14.7396425 15.8861473,14.5716022 L17.748207,15.5769231 L17.2375153,13.904474 C18.6003593,12.8960301 19.6153846,11.5594369 19.6153846,10.0499054 Z M11.1533071,9.23076923 C10.7707485,9.23076923 10.3846154,8.80227389 10.3846154,8.36503608 C10.3846154,7.93386861 10.7707486,7.5 11.1533071,7.5 C11.7345623,7.5 12.1153846,7.93386861 12.1153846,8.36503608 C12.1153846,8.80227389 11.7345623,9.23076923 11.1533071,9.23076923 Z M15.7657305,9.23076923 C15.3849654,9.23076923 15,8.80227389 15,8.36503608 C15,7.93386861 15.3849654,7.5 15.7657305,7.5 C16.3440622,7.5 16.7307692,7.93386861 16.7307692,8.36503608 C16.7307692,8.80227389 16.3440622,9.23076923 15.7657305,9.23076923 Z" id="形状"></path>
                            </g>
                        </g>
                    </g>
                </g>
            </g>
        </g>
    </g>
</svg>