<?xml version="1.0" encoding="UTF-8"?>
<svg width="30px" height="30px" viewBox="0 0 30 30" version="1.1" xmlns="http://www.w3.org/2000/svg" xmlns:xlink="http://www.w3.org/1999/xlink">
    <title>bot_ic_3_nor@2x</title>
    <g id="页面-1" stroke="none" stroke-width="1" fill="none" fill-rule="evenodd">
        <g id="Home" transform="translate(-975.000000, -3414.000000)">
            <g id="底部" transform="translate(0.000000, 3220.000000)">
                <g id="分享" transform="translate(855.000000, 158.000000)">
                    <g id="编组-11" transform="translate(0.000000, 36.000000)">
                        <g id="bot_ic_3_nor" transform="translate(120.000000, 0.000000)">
                            <circle id="椭圆形备份" fill="#E2E3E9" cx="15" cy="15" r="15"></circle>
                            <path d="M22.9280037,12.2626143 C22.9280037,12.0797425 22.9249645,11.8980799 22.9171765,11.7187105 C23.6574988,11.1352388 24.2995743,10.4056073 24.8076923,9.57032209 C24.1281543,9.89299521 23.3986382,10.1091183 22.6317862,10.1989489 C23.4144674,9.69042287 24.0146271,8.87625592 24.2980335,7.89937646 C23.5654571,8.36889733 22.7552119,8.70557978 21.8931313,8.87954977 C21.2025973,8.04880927 20.2174287,7.5202491 19.1281671,7.50052763 C17.0363669,7.46396163 15.3407405,9.33255964 15.3407405,11.674306 C15.3407405,12.0064229 15.3735176,12.3300133 15.4390083,12.6412204 C12.2889085,12.4268069 9.49745669,10.6937991 7.63041038,8.08041366 C7.30466607,8.70662218 7.11756466,9.43819249 7.11756466,10.2226105 C7.11756466,11.7052849 7.78612772,13.0233498 8.80253269,13.8009716 C8.18061306,13.7714728 7.59765444,13.572507 7.08647607,13.2460814 C7.08647607,13.26401 7.08647607,13.2820429 7.08647607,13.3001382 C7.08647607,15.3726428 8.39268244,17.1092155 10.1255181,17.5149647 C9.80770946,17.6105283 9.47250983,17.6603532 9.12802372,17.6584144 C8.88330394,17.6566215 8.64654097,17.6290615 8.41585642,17.5760679 C8.89746581,19.2747612 10.2969169,20.5155871 11.95373,20.5565102 C10.6571056,21.6938506 9.02363526,22.3724482 7.250108,22.3679243 C6.94449846,22.3679243 6.64203367,22.3459514 6.34615385,22.3065293 C8.02318616,23.5226722 10.0135527,24.2307692 12.1534737,24.2307692 C19.118754,24.2332076 22.9280037,17.8236285 22.9280037,12.2626143 L22.9280037,12.2626143 Z" id="路径" fill="#FFFFFF" fill-rule="nonzero"></path>
                        </g>
                    </g>
                </g>
            </g>
        </g>
    </g>
</svg>