<?xml version="1.0" encoding="UTF-8"?>
<svg width="30px" height="30px" viewBox="0 0 30 30" version="1.1" xmlns="http://www.w3.org/2000/svg" xmlns:xlink="http://www.w3.org/1999/xlink">
    <title>bot_ic_4_nor@2x</title>
    <g id="页面-1" stroke="none" stroke-width="1" fill="none" fill-rule="evenodd">
        <g id="Home" transform="translate(-1035.000000, -3414.000000)">
            <g id="底部" transform="translate(0.000000, 3220.000000)">
                <g id="分享" transform="translate(855.000000, 158.000000)">
                    <g id="编组-11" transform="translate(0.000000, 36.000000)">
                        <g id="bot_ic_4_nor" transform="translate(180.000000, 0.000000)">
                            <circle id="椭圆形备份-2" fill="#E2E3E9" cx="15" cy="15" r="15"></circle>
                            <g id="编组" transform="translate(5.192308, 5.192308)" fill="#FFFFFF" fill-rule="nonzero">
                                <path d="M9.80769231,0 C4.39139423,0 0,4.36957255 0,9.76031842 C0,14.0725491 2.81051683,17.7314485 6.70723558,19.0216406 C7.19762019,19.1119235 7.37783654,18.8099637 7.37783654,18.5519252 C7.37783654,18.3195077 7.36864183,17.5502726 7.36435096,16.734676 C4.63536058,17.3251752 4.05977163,15.5829584 4.05977163,15.5829584 C3.61352163,14.4550316 2.97111779,14.1549018 2.97111779,14.1549018 C2.08106971,13.549152 3.03854567,13.5613524 3.03854567,13.5613524 C4.02299279,13.6302847 4.54157452,14.5672752 4.54157452,14.5672752 C5.41629808,16.0593839 6.83596154,15.6280999 7.39561298,15.3786017 C7.48326923,14.7478411 7.73765625,14.3171671 8.01840144,14.0731591 C5.83986779,13.8267111 3.54977163,12.9891538 3.54977163,9.24973176 C3.54977163,8.184027 3.93288462,7.3135286 4.56057692,6.62969629 C4.45882212,6.38385827 4.12290865,5.39135589 4.65558894,4.04687203 C4.65558894,4.04687203 5.4794351,3.78456347 7.35331731,5.04730466 C8.15351478,4.83053781 8.97899298,4.71998011 9.80830529,4.71850394 C10.6413462,4.72216406 11.4811298,4.8307476 12.2651322,5.04730466 C14.1371755,3.78456347 14.9591827,4.04687203 14.9591827,4.04687203 C15.4930889,5.39135589 15.1571755,6.38385827 15.0554207,6.62969629 C15.6843389,7.31291858 16.065,8.184027 16.065,9.24973176 C16.065,12.9983041 13.770613,13.823661 11.5865625,14.0658389 C11.9384135,14.3690188 12.2516466,14.9625681 12.2516466,15.8733279 C12.2516466,17.1793805 12.24,18.2304448 12.24,18.5519252 C12.24,18.8117937 12.4165385,19.1161936 12.9136659,19.0204205 C16.8085457,17.7283984 19.6153846,14.0713291 19.6153846,9.76031842 C19.6153846,4.36957255 15.2239904,0 9.80769231,0 Z" id="路径"></path>
                            </g>
                        </g>
                    </g>
                </g>
            </g>
        </g>
    </g>
</svg>